<svg width="205" height="201" viewBox="0 0 205 201" fill="none" xmlns="http://www.w3.org/2000/svg">
<path d="M64.8892 122.644V36.8735H80.8619V122.644C80.8619 130.63 79.2258 137.369 75.9536 142.859C72.6815 148.35 68.1614 152.537 62.3935 155.421C56.681 158.25 50.1089 159.664 42.6771 159.664C35.2454 159.664 28.6455 158.388 22.8776 155.837C17.1097 153.286 12.5896 149.404 9.31742 144.19C6.04523 138.977 4.40914 132.405 4.40914 124.474H20.4651C20.4651 129.576 21.4079 133.764 23.2936 137.036C25.1792 140.308 27.7859 142.721 31.1135 144.273C34.4967 145.826 38.3512 146.603 42.6771 146.603C46.8922 146.603 50.6635 145.715 53.9911 143.941C57.3743 142.11 60.0364 139.421 61.9775 135.871C63.9186 132.266 64.8892 127.857 64.8892 122.644ZM151.242 101.347H120.544L120.378 88.4521H148.247C152.85 88.4521 156.871 87.6756 160.31 86.1227C163.748 84.5698 166.41 82.3514 168.296 79.4674C170.237 76.528 171.208 73.034 171.208 68.9853C171.208 64.5485 170.348 60.9435 168.629 58.1705C166.965 55.3419 164.386 53.2899 160.892 52.0143C157.453 50.6832 153.072 50.0177 147.748 50.0177H124.121V158H108.065V36.8735H147.748C153.959 36.8735 159.505 37.5113 164.386 38.7869C169.267 40.007 173.398 41.9481 176.781 44.6103C180.22 47.2169 182.827 50.5446 184.601 54.5932C186.376 58.6419 187.264 63.4947 187.264 69.1517C187.264 74.1432 185.988 78.6632 183.437 82.7119C180.886 86.7051 177.336 89.9773 172.788 92.5285C168.296 95.0797 163.027 96.7157 156.982 97.4367L151.242 101.347ZM150.493 158H114.222L123.289 144.939H150.493C155.595 144.939 159.921 144.052 163.471 142.277C167.076 140.502 169.821 138.006 171.707 134.79C173.592 131.517 174.535 127.663 174.535 123.226C174.535 118.734 173.731 114.851 172.123 111.579C170.514 108.307 167.991 105.784 164.552 104.009C161.114 102.234 156.677 101.347 151.242 101.347H128.364L128.531 88.4521H159.81L163.221 93.1108C169.045 93.6099 173.981 95.2738 178.029 98.1023C182.078 100.875 185.156 104.425 187.264 108.751C189.427 113.077 190.508 117.846 190.508 123.06C190.508 130.602 188.844 136.98 185.517 142.194C182.244 147.352 177.613 151.289 171.624 154.007C165.634 156.669 158.59 158 150.493 158Z" fill="#FC721A"/>
</svg>
