<svg width="543" height="201" viewBox="0 0 543 201" fill="none" xmlns="http://www.w3.org/2000/svg">
<path d="M57.2356 101.347H26.538L26.3716 88.4521H54.2407C58.844 88.4521 62.8649 87.6756 66.3035 86.1227C69.742 84.5698 72.4042 82.3514 74.2898 79.4674C76.231 76.528 77.2015 73.034 77.2015 68.9853C77.2015 64.5485 76.3419 60.9435 74.6226 58.1705C72.9588 55.3419 70.3798 53.2899 66.8858 52.0143C63.4472 50.6832 59.0658 50.0177 53.7416 50.0177H30.1152V158H14.0593V36.8735H53.7416C59.9532 36.8735 65.4993 37.5113 70.3798 38.7869C75.2604 40.007 79.3922 41.9481 82.7753 44.6103C86.2139 47.2169 88.8206 50.5446 90.5953 54.5932C92.3701 58.6419 93.2574 63.4947 93.2574 69.1517C93.2574 74.1432 91.9818 78.6632 89.4306 82.7119C86.8794 86.7051 83.3299 89.9773 78.7822 92.5285C74.2898 95.0797 69.021 96.7157 62.9758 97.4367L57.2356 101.347ZM56.4869 158H20.2155L29.2833 144.939H56.4869C61.5893 144.939 65.9152 144.052 69.4647 142.277C73.0697 140.502 75.815 138.006 77.7007 134.79C79.5863 131.517 80.5292 127.663 80.5292 123.226C80.5292 118.734 79.725 114.851 78.1166 111.579C76.5083 108.307 73.9848 105.784 70.5462 104.009C67.1076 102.234 62.6708 101.347 57.2356 101.347H34.358L34.5244 88.4521H65.8043L69.2152 93.1108C75.0385 93.6099 79.9746 95.2738 84.0232 98.1023C88.0718 100.875 91.1499 104.425 93.2574 108.751C95.4204 113.077 96.5019 117.846 96.5019 123.06C96.5019 130.602 94.8381 136.98 91.5104 142.194C88.2382 147.352 83.6072 151.289 77.6175 154.007C71.6277 156.669 64.5842 158 56.4869 158ZM165.052 47.6052L124.953 158H108.565L154.736 36.8735H165.301L165.052 47.6052ZM198.661 158L158.479 47.6052L158.23 36.8735H168.795L215.133 158H198.661ZM196.581 113.16V126.304H128.531V113.16H196.581ZM274.531 101.347H243.834L243.667 88.4521H271.536C276.14 88.4521 280.161 87.6756 283.599 86.1227C287.038 84.5698 289.7 82.3514 291.585 79.4674C293.527 76.528 294.497 73.034 294.497 68.9853C294.497 64.5485 293.638 60.9435 291.918 58.1705C290.254 55.3419 287.675 53.2899 284.181 52.0143C280.743 50.6832 276.361 50.0177 271.037 50.0177H247.411V158H231.355V36.8735H271.037C277.249 36.8735 282.795 37.5113 287.675 38.7869C292.556 40.007 296.688 41.9481 300.071 44.6103C303.51 47.2169 306.116 50.5446 307.891 54.5932C309.666 58.6419 310.553 63.4947 310.553 69.1517C310.553 74.1432 309.277 78.6632 306.726 82.7119C304.175 86.7051 300.626 89.9773 296.078 92.5285C291.585 95.0797 286.317 96.7157 280.271 97.4367L274.531 101.347ZM273.783 158H237.511L246.579 144.939H273.783C278.885 144.939 283.211 144.052 286.76 142.277C290.365 140.502 293.111 138.006 294.996 134.79C296.882 131.517 297.825 127.663 297.825 123.226C297.825 118.734 297.021 114.851 295.412 111.579C293.804 108.307 291.28 105.784 287.842 104.009C284.403 102.234 279.966 101.347 274.531 101.347H251.654L251.82 88.4521H283.1L286.511 93.1108C292.334 93.6099 297.27 95.2738 301.319 98.1023C305.368 100.875 308.446 104.425 310.553 108.751C312.716 113.077 313.798 117.846 313.798 123.06C313.798 130.602 312.134 136.98 308.806 142.194C305.534 147.352 300.903 151.289 294.913 154.007C288.923 156.669 281.88 158 273.783 158ZM382.347 47.6052L342.249 158H325.86L372.031 36.8735H382.597L382.347 47.6052ZM415.956 158L375.775 47.6052L375.525 36.8735H386.091L432.428 158H415.956ZM413.877 113.16V126.304H345.826V113.16H413.877ZM464.707 36.8735V158H448.651V36.8735H464.707ZM537.832 36.8735L487.501 93.3604L459.216 122.727L456.554 105.589L477.851 82.1295L518.531 36.8735H537.832ZM522.358 158L477.518 98.9342L487.085 86.2059L541.492 158H522.358Z" fill="black"/>
<line x1="320.11" y1="111.624" x2="435.114" y2="33.0588" stroke="black" stroke-width="12.7782"/>
</svg>
